#N canvas 870 850 933 842 16;
#X floatatom 224 113 5 0 127 2 Velocity - -;
#X floatatom 327 117 5 0 5000 2 Duration - -;
#X floatatom 176 317 5 0 0 0 - - -;
#X obj 177 278 expr $f1/127;
#X obj 176 353 sel 0;
#X obj 176 491 bng 15 250 50 0 empty empty empty 17 7 0 10 -262144
-1 -1;
#X obj 175 684 line~;
#X floatatom 286 388 5 0 0 0 - - -;
#X floatatom 273 316 5 0 5000 2 Release - -;
#X floatatom 381 317 5 0 3000 2 Attack - -;
#X obj 491 561 * 0.01;
#X floatatom 519 491 5 0 100 2 Sustain(level) - -;
#X floatatom 566 561 5 0 4000 2 Decay(time) - -;
#X msg 249 240 0;
#X obj 176 392 t b b;
#X obj 287 425 t f b f;
#X msg 222 425 stop;
#X obj 490 593 *;
#X obj 107 157 t b b;
#X obj 110 19 inlet;
#X obj 220 37 inlet;
#X obj 327 37 inlet;
#X obj 419 36 inlet;
#X obj 505 35 inlet;
#X obj 593 35 inlet;
#X obj 676 36 inlet;
#X obj 177 737 outlet~;
#X obj 176 240 f \$1;
#X obj 250 208 del \$2;
#X obj 409 484 del \$3;
#X obj 489 625 pack f \$4;
#X obj 287 518 pack f \$3;
#X obj 491 526 f \$5;
#X obj 175 519 pack 0 \$6;
#X connect 0 0 27 1;
#X connect 1 0 28 1;
#X connect 2 0 4 0;
#X connect 3 0 2 0;
#X connect 4 0 14 0;
#X connect 4 1 7 0;
#X connect 5 0 33 0;
#X connect 6 0 26 0;
#X connect 7 0 15 0;
#X connect 8 0 33 1;
#X connect 9 0 29 1;
#X connect 9 0 31 1;
#X connect 10 0 17 0;
#X connect 11 0 32 1;
#X connect 12 0 30 1;
#X connect 13 0 2 0;
#X connect 14 0 5 0;
#X connect 14 1 16 0;
#X connect 15 0 31 0;
#X connect 15 1 29 0;
#X connect 15 2 17 1;
#X connect 16 0 29 0;
#X connect 17 0 30 0;
#X connect 18 0 27 0;
#X connect 18 1 28 0;
#X connect 19 0 18 0;
#X connect 20 0 0 0;
#X connect 21 0 1 0;
#X connect 22 0 9 0;
#X connect 23 0 12 0;
#X connect 24 0 11 0;
#X connect 25 0 8 0;
#X connect 27 0 3 0;
#X connect 28 0 13 0;
#X connect 29 0 32 0;
#X connect 30 0 6 0;
#X connect 31 0 6 0;
#X connect 32 0 10 0;
#X connect 33 0 6 0;
