#N canvas 1166 540 714 514 24;
#X obj 136 136 *~ 0.25;
#X obj 136 187 *~;
#X obj 280 89 s onOff;
#X obj 274 159 r onOff;
#X obj 136 242 dac~;
#X obj 280 57 tgl 15 0 empty empty empty 17 7 0 10 -262144 -1 -1 0
1;
#X obj 136 91 osc~ 440;
#X connect 0 0 1 0;
#X connect 1 0 4 1;
#X connect 1 0 4 0;
#X connect 3 0 1 1;
#X connect 5 0 2 0;
#X connect 6 0 0 0;
