#N canvas 1274 248 1095 976 16;
#X obj 158 920 dac~;
#X floatatom 344 324 5 0 127 2 Velocity - -;
#X floatatom 426 367 5 0 5000 2 Duration - -;
#X floatatom 806 341 5 0 5000 2 Release - -;
#X floatatom 506 341 5 0 3000 2 Attack - -;
#X floatatom 678 343 5 0 100 2 Sustain(level) - -;
#X floatatom 575 342 5 0 4000 2 Decay(time) - -;
#X obj 338 414 adsr_vol 100 400 4 100 50 800;
#X obj 387 200 r synthDuration;
#X obj 342 168 r synthVelocity;
#X obj 201 335 bng 15 250 50 0 empty empty empty 17 7 0 10 -262144
-1 -1;
#X obj 210 292 t f f;
#X obj 566 230 r synthAttack;
#X obj 578 269 r synthDecay;
#X obj 741 213 r synthSustain;
#X obj 760 245 r synthRelease;
#X obj 156 866 *~;
#X obj 85 412 mtof;
#X floatatom 85 462 5 0 0 0 - - -;
#X floatatom 81 366 5 0 127 2 Pitch - -;
#X obj 213 183 bng 15 250 50 0 empty empty empty 17 7 0 10 -262144
-1 -1;
#X obj 210 82 r playSynthTriangle;
#X obj 85 510 phasor~;
#X obj 19 570 *~ 2;
#X obj 19 660 clip~ 0 1;
#X obj 136 659 clip~ 0 1;
#X obj 94 712 +~;
#X obj 7 228 r synthPitchTriangle;
#X obj 136 569 *~ -2;
#X obj 19 610 +~ -1;
#X obj 135 607 +~ 1;
#X connect 1 0 7 1;
#X connect 2 0 7 2;
#X connect 3 0 7 6;
#X connect 4 0 7 3;
#X connect 5 0 7 5;
#X connect 6 0 7 4;
#X connect 7 0 16 1;
#X connect 8 0 2 0;
#X connect 9 0 1 0;
#X connect 10 0 19 0;
#X connect 11 0 10 0;
#X connect 11 1 7 0;
#X connect 12 0 4 0;
#X connect 13 0 6 0;
#X connect 14 0 5 0;
#X connect 15 0 3 0;
#X connect 16 0 0 0;
#X connect 16 0 0 1;
#X connect 17 0 18 0;
#X connect 18 0 22 0;
#X connect 19 0 17 0;
#X connect 20 0 11 0;
#X connect 21 0 20 0;
#X connect 22 0 23 0;
#X connect 22 0 28 0;
#X connect 23 0 29 0;
#X connect 24 0 26 0;
#X connect 25 0 26 1;
#X connect 26 0 16 0;
#X connect 27 0 19 0;
#X connect 28 0 30 0;
#X connect 29 0 24 0;
#X connect 30 0 25 0;
