#N canvas 319 280 1095 976 16;
#X obj 75 423 mtof;
#X floatatom 18 498 5 0 0 2 Carrier_freq - -;
#X obj 154 926 dac~;
#X obj 715 42 vsl 15 128 0 4000 0 0 empty empty Dur 0 -9 0 10 -262144
-1 -1 0 1;
#X obj 745 43 vsl 15 128 0 500 0 0 empty empty A 0 -9 0 10 -262144
-1 -1 0 1;
#X obj 774 43 vsl 15 128 0 500 0 0 empty empty D 0 -9 0 10 -262144
-1 -1 0 1;
#X obj 805 44 vsl 15 128 0 100 0 0 empty empty S 0 -9 0 10 -262144
-1 -1 0 1;
#X obj 834 44 vsl 15 128 0 2000 0 0 empty empty R 0 -9 0 10 -262144
-1 -1 0 1;
#X floatatom 344 324 5 0 127 2 Velocity - -;
#X floatatom 426 367 5 0 5000 2 Duration - -;
#X floatatom 806 341 5 0 5000 2 Release - -;
#X floatatom 506 341 5 0 3000 2 Attack - -;
#X floatatom 678 343 5 0 100 2 Sustain(level) - -;
#X floatatom 575 342 5 0 4000 2 Decay(time) - -;
#X floatatom 161 375 5 0 127 2 Pitch - -;
#X obj 338 414 adsr_vol 100 400 4 100 50 800;
#X obj 477 492 4;
#X obj 522 493 100;
#X obj 568 491 50;
#X obj 616 492 800;
#X obj 387 200 r synthDuration;
#X obj 342 168 r synthVelocity;
#X obj 201 335 bng 15 250 50 0 empty empty empty 17 7 0 10 -262144
-1 -1;
#X obj 210 292 t f f;
#X obj 566 230 r synthAttack;
#X obj 578 269 r synthDecay;
#X obj 741 213 r synthSustain;
#X obj 760 245 r synthRelease;
#X obj 202 211 bng 15 250 50 0 empty empty empty 17 7 0 10 -262144
-1 -1;
#X obj 136 780 *~;
#X floatatom 744 767 5 1 100 0 - - -;
#X obj 706 839 clip~ -0.5 0.5;
#X obj 708 800 *~ 1;
#X text 742 741 Distortion;
#X obj 665 604 hip~;
#X obj 664 640 lop~;
#X obj 666 695 bp~;
#X floatatom 747 574 5 0 0 0 - - -;
#X floatatom 746 603 5 0 0 0 - - -;
#X floatatom 745 637 5 0 0 0 - - -;
#X floatatom 745 669 5 0 0 0 - - -;
#X text 737 537 Equalizer;
#X text 812 574 HighPass;
#X text 813 600 LowPass;
#X text 812 632 BandPassCenterFreq;
#X text 815 665 BandPassQ;
#X obj 1008 571 env~;
#X floatatom 1008 606 5 0 0 0 - - -;
#X obj 1008 636 - 50;
#X obj 1008 670 clip 0 50;
#X obj 1007 703 * 30;
#X floatatom 1005 738 5 0 0 0 - - -;
#X msg 1005 770 \$1 10;
#X obj 1002 801 line~;
#X obj 985 838 vcf~;
#X floatatom 1078 804 5 0 0 0 - - -;
#X text 998 534 wow;
#X obj 247 788 delwrite~ delay1 1000;
#X floatatom 243 830 5 0 0 0 - - -;
#X obj 245 746 +~;
#X floatatom 355 748 5 0 0 0 - - -;
#X text 419 746 FeedBack(0~0.99999);
#X text 294 828 delayTime;
#X obj 297 747 *~ 0;
#X obj 242 865 delread~ delay1 0;
#X text 276 714 FeedBackDelay;
#X obj 82 550 osc~;
#X floatatom 82 517 5 0 0 2 Modulator_freq - -;
#X obj 16 640 +~;
#X obj 83 581 *~;
#X floatatom 152 554 5 0 0 2 Moduration_index - -;
#X obj 130 439 r fmModFreq;
#X obj 208 482 r fmModIndex;
#X obj 22 238 r synthPitchFmOsc;
#X obj 186 138 r playSynthFmOsc;
#X obj 18 676 osc~;
#X connect 0 0 1 0;
#X connect 1 0 68 0;
#X connect 8 0 15 1;
#X connect 9 0 15 2;
#X connect 10 0 15 6;
#X connect 11 0 15 3;
#X connect 12 0 15 5;
#X connect 13 0 15 4;
#X connect 14 0 0 0;
#X connect 15 0 29 1;
#X connect 20 0 9 0;
#X connect 21 0 8 0;
#X connect 22 0 14 0;
#X connect 23 0 22 0;
#X connect 23 1 15 0;
#X connect 24 0 11 0;
#X connect 25 0 13 0;
#X connect 26 0 12 0;
#X connect 27 0 10 0;
#X connect 28 0 23 0;
#X connect 29 0 2 0;
#X connect 29 0 2 1;
#X connect 30 0 32 1;
#X connect 32 0 31 0;
#X connect 34 0 35 0;
#X connect 35 0 36 0;
#X connect 37 0 34 1;
#X connect 38 0 35 1;
#X connect 39 0 36 1;
#X connect 40 0 36 2;
#X connect 46 0 47 0;
#X connect 47 0 48 0;
#X connect 48 0 49 0;
#X connect 49 0 50 0;
#X connect 50 0 51 0;
#X connect 51 0 52 0;
#X connect 52 0 53 0;
#X connect 53 0 54 1;
#X connect 55 0 54 2;
#X connect 58 0 64 0;
#X connect 59 0 57 0;
#X connect 60 0 63 1;
#X connect 63 0 59 1;
#X connect 64 0 63 0;
#X connect 66 0 69 0;
#X connect 67 0 66 0;
#X connect 68 0 75 0;
#X connect 69 0 68 1;
#X connect 70 0 69 1;
#X connect 71 0 67 0;
#X connect 72 0 70 0;
#X connect 73 0 14 0;
#X connect 74 0 28 0;
#X connect 75 0 29 0;
