#N canvas 918 286 1287 1041 16;
#X obj 1038 491 mtof;
#X obj 146 728 dac~;
#X floatatom 278 411 5 0 127 2 Velocity - -;
#X floatatom 345 471 5 0 5000 2 Duration - -;
#X floatatom 735 427 5 0 5000 2 Release - -;
#X floatatom 438 425 5 0 3000 2 Attack - -;
#X floatatom 610 427 5 0 100 2 Sustain(level) - -;
#X floatatom 507 426 5 0 4000 2 Decay(time) - -;
#X floatatom 1034 453 5 0 127 2 Pitch - -;
#X obj 252 523 adsr_vol 100 400 4 100 50 800;
#X obj 346 331 r synthDuration;
#X obj 278 289 r synthVelocity;
#X obj 170 452 bng 15 250 50 0 empty empty empty 17 7 0 10 -262144
-1 -1;
#X obj 203 404 t f f;
#X obj 439 289 r synthAttack;
#X obj 511 325 r synthDecay;
#X obj 612 288 r synthSustain;
#X obj 735 347 r synthRelease;
#X obj 39 288 r synthPitchOsc;
#X obj 203 369 bng 15 250 50 0 empty empty empty 17 7 0 10 -262144
-1 -1;
#X obj 200 252 r playSynthOsc;
#X obj 144 664 *~;
#X floatatom 968 867 5 1 100 0 - - -;
#X obj 930 939 clip~ -0.5 0.5;
#X obj 932 900 *~ 1;
#X text 966 841 Distortion;
#X obj 889 704 hip~;
#X obj 888 740 lop~;
#X obj 895 807 bp~;
#X floatatom 971 674 5 0 0 0 - - -;
#X floatatom 970 703 5 0 0 0 - - -;
#X floatatom 969 737 5 0 0 0 - - -;
#X floatatom 969 769 5 0 0 0 - - -;
#X text 966 649 Equalizer;
#X text 1036 674 HighPass;
#X text 1037 700 LowPass;
#X text 1036 732 BandPassCenterFreq;
#X text 1039 765 BandPassQ;
#X obj 1232 671 env~;
#X floatatom 1232 706 5 0 0 0 - - -;
#X obj 1232 736 - 50;
#X obj 1232 770 clip 0 50;
#X obj 1231 803 * 30;
#X floatatom 1229 838 5 0 0 0 - - -;
#X msg 1229 870 \$1 10;
#X obj 1226 901 line~;
#X obj 1209 938 vcf~;
#X floatatom 1307 916 5 0 0 0 - - -;
#X text 1227 646 wow;
#X obj 957 110 delwrite~ delay1 1000;
#X floatatom 957 151 5 0 0 0 - - -;
#X obj 959 67 +~;
#X floatatom 1065 70 5 0 0 0 - - -;
#X text 1129 68 FeedBack(0~0.99999);
#X text 1004 150 delayTime;
#X obj 1007 69 *~ 0;
#X obj 952 187 delread~ delay1 0;
#X text 986 36 FeedBackDelay;
#X obj 1040 570 osc~;
#X obj 1165 568 osc~;
#X obj 145 620 osc~;
#X obj 1106 492 mtof;
#X obj 1164 489 mtof;
#X obj 142 536 mtof;
#X obj 1029 394 route 1 2 3 4;
#X obj 1106 570 osc~;
#X floatatom 1040 529 5 0 0 0 - - -;
#X floatatom 1105 528 5 0 0 0 - - -;
#X floatatom 1164 528 5 0 0 0 - - -;
#X floatatom 144 577 5 0 0 0 - - -;
#X floatatom 1103 455 5 0 127 2 Pitch - -;
#X floatatom 1163 455 5 0 127 2 Pitch - -;
#X floatatom 141 494 5 0 127 2 Pitch - -;
#X floatatom 40 405 5 0 127 0 - - -;
#X floatatom 1025 255 5 0 0 0 - - -;
#X obj 1027 326 poly 4 1;
#X obj 1028 361 pack;
#X obj 1026 289 pack 0 100;
#X connect 0 0 66 0;
#X connect 2 0 9 1;
#X connect 3 0 9 2;
#X connect 4 0 9 6;
#X connect 5 0 9 3;
#X connect 6 0 9 5;
#X connect 7 0 9 4;
#X connect 8 0 0 0;
#X connect 9 0 21 1;
#X connect 10 0 3 0;
#X connect 11 0 2 0;
#X connect 12 0 72 0;
#X connect 13 0 12 0;
#X connect 13 1 9 0;
#X connect 14 0 5 0;
#X connect 15 0 7 0;
#X connect 16 0 6 0;
#X connect 17 0 4 0;
#X connect 18 0 73 0;
#X connect 19 0 13 0;
#X connect 20 0 19 0;
#X connect 21 0 1 0;
#X connect 21 0 1 1;
#X connect 22 0 24 1;
#X connect 24 0 23 0;
#X connect 26 0 27 0;
#X connect 27 0 28 0;
#X connect 29 0 26 1;
#X connect 30 0 27 1;
#X connect 31 0 28 1;
#X connect 32 0 28 2;
#X connect 38 0 39 0;
#X connect 39 0 40 0;
#X connect 40 0 41 0;
#X connect 41 0 42 0;
#X connect 42 0 43 0;
#X connect 43 0 44 0;
#X connect 44 0 45 0;
#X connect 45 0 46 1;
#X connect 47 0 46 2;
#X connect 50 0 56 0;
#X connect 51 0 49 0;
#X connect 52 0 55 1;
#X connect 55 0 51 1;
#X connect 56 0 55 0;
#X connect 60 0 21 0;
#X connect 61 0 67 0;
#X connect 62 0 68 0;
#X connect 63 0 69 0;
#X connect 66 0 58 0;
#X connect 67 0 65 0;
#X connect 68 0 59 0;
#X connect 69 0 60 0;
#X connect 70 0 61 0;
#X connect 71 0 62 0;
#X connect 72 0 63 0;
#X connect 73 0 72 0;
#X connect 74 0 77 0;
#X connect 75 0 76 0;
#X connect 75 1 76 1;
#X connect 76 0 64 0;
#X connect 77 0 75 0;
